<svg preserveAspectRatio="xMidYMid meet" data-bbox="51 46.5 98 107" viewBox="51 46.5 98 107" height="200" width="200" xmlns="http://www.w3.org/2000/svg" data-type="color" role="img" aria-labelledby="comp-kby3k04d1-svgtitle"><title id="comp-kby3k04d1-svgtitle"></title>
    <g>
        <path d="M139.644 124.009c-7.015 12.647-19.386 21.07-33.46 21.07-16.757 0-31.104-11.929-36.866-28.718h25.154v-8.419H67.235a51.049 51.049 0 0 1-.628-7.943c0-2.71.222-5.362.626-7.942h27.239v-8.419H69.319c5.759-16.789 20.109-28.717 36.866-28.717 14.074 0 26.445 8.423 33.46 21.069H149c-7.9-17.471-24.118-29.49-42.816-29.49-21.327 0-39.432 15.619-45.644 37.138H51v8.419h7.767a60.35 60.35 0 0 0-.53 7.942c0 2.698.186 5.351.53 7.943H51v8.419h9.54c6.212 21.52 24.318 37.139 45.644 37.139 18.696 0 34.916-12.019 42.816-29.491h-9.356z" fill="#2f54dd" data-color="1"></path>
    </g>
</svg>